<svg width="200" height="50" viewBox="0 0 540 105" fill="none" xmlns="http://www.w3.org/2000/svg">
<path d="M512.825 48.5477C510.918 47.4319 508.468 48.0731 507.353 49.9798C506.237 51.8864 506.878 54.3366 508.785 55.4524L512.825 48.5477ZM21.4194 55.7397C21.6817 55.6402 22.5341 55.4392 24.2885 55.2705C25.9382 55.1119 28.096 55.0055 30.7575 54.9544C36.0746 54.8524 43.1864 54.9747 51.8438 55.2844C69.1475 55.9033 92.4102 57.2621 119.394 59.0117C173.309 62.5076 242.041 67.5617 307.211 71.3335C372.351 75.1036 434.191 77.6098 474.373 75.9869C484.43 75.5807 493.204 74.9134 500.372 73.9283C507.447 72.9561 513.3 71.6326 517.3 69.7576C519.289 68.8253 521.212 67.58 522.497 65.8193C523.929 63.8584 524.385 61.491 523.66 59.0825C523.011 56.9263 521.519 55.0713 519.787 53.4804C518.008 51.847 515.665 50.2098 512.825 48.5477L508.785 55.4524C511.351 56.9542 513.168 58.2641 514.375 59.3722C515.628 60.5229 515.944 61.2037 516 61.3887C516.014 61.4356 515.986 61.3607 516.011 61.2197C516.035 61.0826 516.082 61.0385 516.036 61.1027C515.888 61.3051 515.344 61.8392 513.905 62.5138C511.049 63.8526 506.195 65.0529 499.283 66.0027C492.466 66.9396 483.972 67.5927 474.05 67.9934C434.316 69.5983 372.847 67.1189 307.673 63.3468C242.528 59.5764 173.938 54.5316 119.911 51.0285C92.9233 49.2786 69.5595 47.913 52.1297 47.2895C43.4203 46.978 36.1386 46.8497 30.604 46.9559C27.8396 47.0089 25.4569 47.1213 23.5227 47.3073C21.6932 47.4832 19.9182 47.7527 18.5806 48.2603L21.4194 55.7397Z" fill="black"/>
<path d="M513.108 42.8764C511.302 41.6043 508.806 42.0373 507.534 43.8434C506.262 45.6496 506.695 48.1449 508.501 49.417L513.108 42.8764ZM21.6618 49.7851C21.8517 49.6983 22.6283 49.4653 24.3653 49.2643C25.9869 49.0766 28.122 48.9493 30.7729 48.888C36.0679 48.7658 43.1624 48.9123 51.8145 49.2848C69.1055 50.0291 92.3581 51.6637 119.341 53.7694C173.246 57.9759 241.992 64.0598 307.164 68.5995C372.301 73.1368 434.179 76.1564 474.406 74.2009C484.477 73.7113 493.278 72.9065 500.48 71.7153C507.585 70.5402 513.508 68.9333 517.568 66.6435C519.616 65.4881 521.484 63.9968 522.686 62.0147C523.967 59.9033 524.317 57.5128 523.71 55.0879C523.14 52.8073 521.783 50.7097 520.047 48.7905C518.29 46.8483 515.957 44.8829 513.108 42.8764L508.501 49.417C511.059 51.2183 512.886 52.8001 514.114 54.1573C515.363 55.5377 515.815 56.492 515.95 57.0292C516.048 57.4221 515.998 57.615 515.846 57.8662C515.615 58.2468 515.017 58.897 513.637 59.6757C510.839 61.2538 506.057 62.6843 499.175 63.8225C492.391 64.9445 483.925 65.7287 474.017 66.2103C434.328 68.1397 372.898 65.159 307.72 60.6188C242.577 56.0812 174.001 50.0106 119.963 45.7936C92.975 43.6875 69.6011 42.0431 52.1586 41.2922C43.4439 40.917 36.145 40.7618 30.5882 40.8902C27.8132 40.9543 25.4079 41.0903 23.4456 41.3173C21.5986 41.5311 19.7478 41.8642 18.3378 42.5083L21.6618 49.7851Z" fill="#A33B20"/>
<rect x="0.500183" y="1.41916" width="539" height="102.141" rx="4.5" stroke="none" stroke-dasharray="10 5"/>
</svg>
