<svg width="336" height="31" viewBox="0 0 336 31" fill="none" xmlns="http://www.w3.org/2000/svg">
<rect width="336" height="31" fill="#1E1E1E"/>
<path d="M327.658 3.01084C326.007 1.54288 323.479 1.69117 322.011 3.34205C320.543 4.99293 320.691 7.52125 322.342 8.9892L327.658 3.01084ZM3.99855 9.46506C3.83258 9.56078 4.05945 9.40605 5.14877 9.24688C6.11487 9.10573 7.43905 9.00319 9.14577 8.95343C12.5513 8.85413 17.1585 8.97259 22.8336 9.28105C34.1673 9.89706 49.4335 11.2514 67.1894 13.0008C102.624 16.4921 147.917 21.5521 190.816 25.3248C233.67 29.0936 274.527 31.6174 301.163 29.9826C307.841 29.5728 313.732 28.8962 318.594 27.8811C323.362 26.8853 327.539 25.4868 330.478 23.3939C331.988 22.3186 333.332 20.9464 334.174 19.193C335.044 17.3828 335.253 15.4231 334.863 13.4582C334.135 9.78516 331.375 6.3162 327.658 3.01084L322.342 8.9892C325.741 12.0116 326.816 14.0036 327.016 15.013C327.09 15.3893 327.036 15.5762 326.963 15.729C326.862 15.9386 326.583 16.346 325.837 16.8776C324.263 17.9985 321.394 19.1237 316.958 20.05C312.615 20.9568 307.143 21.6006 300.673 21.9976C274.716 23.5907 234.423 21.129 191.517 17.3555C148.655 13.586 103.576 8.54709 67.9738 5.03939C50.2112 3.28932 34.7924 1.91923 23.2678 1.29284C17.5139 0.980102 12.6487 0.84789 8.91261 0.956823C7.04855 1.01117 5.38466 1.12748 3.99217 1.33093C2.7229 1.51639 1.22066 1.83204 0.00181266 2.53498L3.99855 9.46506Z" fill="black"/>
</svg>
